<?xml version="1.0" standalone="no"?>
<!DOCTYPE svg PUBLIC "-//W3C//DTD SVG 20010904//EN"
 "http://www.w3.org/TR/2001/REC-SVG-20010904/DTD/svg10.dtd">
<svg version="1.0" xmlns="http://www.w3.org/2000/svg"
 width="512.000000pt" height="512.000000pt" viewBox="0 0 512.000000 512.000000"
 preserveAspectRatio="xMidYMid meet">

<g transform="translate(0.000000,512.000000) scale(0.100000,-0.100000)"
fill="#000000" stroke="none">
<path d="M2073 5086 l-28 -24 -3 -231 -3 -231 -895 0 c-950 0 -940 0 -958 -45
-3 -9 -6 -211 -6 -448 1 -324 4 -436 13 -448 26 -33 55 -39 206 -39 148 0 151
0 155 -22 5 -24 267 -3479 266 -3511 0 -10 13 -32 29 -48 l29 -29 1641 0
c1181 0 1647 3 1664 11 14 6 30 21 36 33 6 12 66 750 141 1731 71 941 132
1738 135 1773 l7 62 184 0 c187 0 215 4 241 39 9 12 12 124 13 448 0 237 -3
439 -6 448 -18 46 -2 45 -1034 45 l-970 0 0 226 0 226 -29 29 -29 29 -386 0
-385 0 -28 -24z m687 -316 l0 -170 -275 0 -275 0 0 170 0 170 275 0 275 0 0
-170z m2010 -660 l0 -320 -2210 0 -2210 0 0 320 0 320 2210 0 2210 0 0 -320z
m-445 -542 c-8 -74 -255 -3337 -255 -3365 l0 -23 -1540 0 -1540 0 -4 23 c-3
12 -61 776 -131 1697 -69 921 -127 1685 -129 1698 l-3 22 1803 0 1804 0 -5
-52z"/>
<path d="M1420 2957 c-53 -27 -55 15 40 -1123 48 -584 93 -1071 99 -1081 28
-53 112 -51 143 3 16 28 12 79 -72 1090 -52 626 -92 1070 -99 1083 -12 21 -48
41 -74 41 -7 0 -23 -6 -37 -13z"/>
<path d="M2522 2960 c-53 -22 -52 5 -52 -1120 0 -861 2 -1046 14 -1074 29 -70
123 -70 152 0 21 51 21 2099 -1 2149 -19 48 -63 65 -113 45z"/>
<path d="M3584 2946 l-28 -23 -89 -1069 c-97 -1168 -95 -1103 -34 -1132 19 -9
36 -11 54 -5 62 21 55 -31 149 1113 48 580 84 1067 81 1082 -8 29 -51 58 -86
58 -11 0 -32 -11 -47 -24z"/>
</g>
</svg>
