<?xml version="1.0" standalone="no"?>
<!DOCTYPE svg PUBLIC "-//W3C//DTD SVG 20010904//EN"
 "http://www.w3.org/TR/2001/REC-SVG-20010904/DTD/svg10.dtd">
<svg version="1.0" xmlns="http://www.w3.org/2000/svg"
 width="486.000000pt" height="165.000000pt" viewBox="0 0 486.000000 165.000000"
 preserveAspectRatio="xMidYMid meet">

<g transform="translate(0.000000,165.000000) scale(0.100000,-0.100000)"
fill="#000000" stroke="none">
<path d="M4095 1607 c-17 -17 -34 -62 -66 -182 -39 -144 -43 -172 -43 -277 -1
-135 8 -156 48 -113 51 55 113 196 155 353 23 84 41 161 41 171 0 25 -32 51
-75 61 -30 7 -40 5 -60 -13z"/>
<path d="M3580 1105 c-25 -30 -5 -43 74 -47 89 -4 107 -15 82 -52 -27 -42 -21
-83 17 -106 27 -17 50 -20 144 -20 103 0 113 2 123 21 21 39 9 44 -107 44 -61
0 -114 3 -118 7 -4 4 -1 24 7 45 32 80 -18 123 -140 123 -49 0 -73 -4 -82 -15z"/>
<path d="M3387 713 c-3 -142 -9 -270 -13 -285 l-6 -27 243 -3 c248 -3 291 2
297 33 3 14 -24 17 -230 25 l-232 9 3 253 3 252 -30 0 -29 0 -6 -257z"/>
<path d="M101 943 c-12 -24 -74 -502 -67 -520 4 -9 17 -13 38 -11 l33 3 7 125
c8 147 27 309 38 330 8 14 69 -104 166 -321 22 -48 49 -79 59 -67 1 2 30 54
65 117 75 140 118 203 133 198 7 -2 21 -81 34 -193 19 -155 27 -192 43 -209
18 -18 21 -18 36 -4 13 14 14 27 4 95 -6 43 -19 141 -30 216 -11 77 -28 158
-39 184 -18 39 -24 45 -47 42 -22 -3 -39 -25 -110 -148 -46 -80 -90 -145 -96
-145 -7 0 -42 58 -78 128 -79 157 -110 197 -150 197 -18 0 -33 -7 -39 -17z"/>
<path d="M4655 948 c-3 -7 -6 -62 -7 -123 l-3 -110 -62 -3 c-59 -3 -63 -4 -63
-27 0 -24 3 -25 64 -25 77 0 76 3 76 -156 0 -113 6 -134 42 -134 17 0 18 12
18 150 l0 150 60 0 60 0 0 31 0 31 -62 -3 -63 -4 -5 105 c-3 58 -9 111 -13
118 -10 16 -36 16 -42 0z"/>
<path d="M2290 660 l0 -270 43 0 c143 0 388 144 449 263 27 53 22 139 -10 184
-49 69 -198 106 -343 85 -54 -8 -87 -8 -99 -2 -10 6 -23 10 -29 10 -8 0 -11
-86 -11 -270z m328 205 c103 -31 148 -100 117 -180 -33 -87 -220 -221 -338
-241 l-37 -6 2 208 3 209 45 12 c64 16 148 16 208 -2z"/>
<path d="M1227 874 c-4 -4 -7 -17 -7 -29 0 -27 30 -35 126 -35 l64 0 0 -32 c0
-18 -5 -113 -11 -211 -7 -98 -9 -180 -6 -183 3 -3 19 -3 36 1 30 6 31 8 32 68
1 89 23 335 31 342 4 4 57 8 120 10 129 4 150 9 146 37 -3 19 -13 20 -233 23
-126 1 -244 6 -260 10 -17 3 -33 3 -38 -1z"/>
<path d="M1129 733 c-12 -27 -41 -95 -66 -153 -24 -58 -48 -109 -52 -113 -4
-4 -39 34 -78 85 -39 51 -88 113 -109 137 -39 43 -39 43 -57 23 -18 -19 -16
-22 49 -118 37 -55 89 -127 115 -161 l48 -62 -49 -150 c-28 -83 -50 -162 -50
-176 0 -29 20 -33 42 -7 20 23 280 721 273 733 -16 24 -45 7 -66 -38z"/>
<path d="M3972 588 l3 -193 30 0 30 0 -3 170 c-3 206 -4 215 -37 215 l-25 0 2
-192z"/>
<path d="M4241 750 c-98 -35 -161 -93 -161 -148 0 -21 45 -67 76 -76 12 -4 43
-2 69 4 63 14 144 15 157 2 18 -18 -49 -74 -126 -108 -65 -28 -82 -49 -50 -61
26 -10 177 72 222 122 48 51 52 78 17 101 -22 14 -39 16 -103 9 -42 -4 -102
-8 -132 -9 -50 -1 -55 1 -58 22 -3 16 7 33 33 57 48 46 125 60 223 41 36 -7
42 -5 42 9 0 44 -18 55 -88 55 -40 -1 -89 -8 -121 -20z"/>
<path d="M1945 732 c-102 -50 -135 -99 -135 -201 0 -110 61 -158 189 -148 129
10 225 88 237 193 8 68 -9 118 -53 151 -30 23 -48 28 -107 31 -62 3 -79 -1
-131 -26z m179 -22 c42 -16 68 -67 63 -123 -5 -60 -30 -96 -89 -125 -46 -23
-148 -33 -195 -18 -67 21 -42 168 40 230 50 38 133 55 181 36z"/>
<path d="M3021 738 c-68 -26 -126 -84 -142 -140 -14 -52 -5 -124 19 -158 60
-83 238 -79 334 8 52 46 68 85 68 161 0 50 -4 65 -27 92 -15 17 -42 38 -60 45
-46 20 -129 16 -192 -8z m178 -32 c35 -18 51 -55 51 -114 0 -101 -69 -152
-207 -154 -68 0 -79 2 -95 22 -40 49 -2 177 64 218 62 39 143 50 187 28z"/>
</g>
</svg>
